<?xml version="1.0" encoding="utf-8"?>
<!-- Generator: Adobe Illustrator 19.0.0, SVG Export Plug-In . SVG Version: 6.00 Build 0)  -->
<svg version="1.1" id="layer" xmlns="http://www.w3.org/2000/svg" xmlns:xlink="http://www.w3.org/1999/xlink" x="0px" y="0px"
	 viewBox="-153 -46 652 652" style="enable-background:new -153 -46 652 652;" xml:space="preserve">
<style type="text/css">
	.st0{fill:#ED1C24;}
</style>
<path d="M237.7,258.8l-9.2,15.5l7.6,0L237.7,258.8z M81.8,245.7l-7.4,0l-13.6,31.8c2.1-0.3,8.4-1.3,9.9-1.7c1.9-0.6,3.4-2.4,5.6-7.1
	c2.2-4.6,5.4-13,7.2-17.3C85.2,247.1,83.6,245.6,81.8,245.7 M370.2,241.2c4,0,5.8,3.4,1.9,7.3c-3.8,3.9-42.8,46.5-44.2,48
	c-1.3,1.5-1.9,3,0.4,3l23.6,0l-2.1,5.4l-36.6,0c-4.3,0-5.9-3-1.8-7.4l45.2-48.7c1.5-1.7,1.1-2.4-0.4-2.4l-21.4,0l1.8-5L370.2,241.2z
	 M291.6,241.2l-22.9,54.1c-1.6,3.5,0.5,4.1,2.4,4.1l13.9,0l-2.1,5.4l-25.3,0c-4.7,0-6.4-3.2-3.8-9.1l23.5-54.5L291.6,241.2z
	 M252.4,241.2l-5.3,63.6l-14.1,0l2.7-25.8l-11.5,0l-17.1,25.8l-13.6,0l40.3-59.5c1.4-2,4.3-4.1,6.3-4.1L252.4,241.2z M214.9,241.2
	l-27,63.6l-14.8,0l27.6-63.6L214.9,241.2z M330.1,241.2l-27,63.6l-14.8,0l27.6-63.6L330.1,241.2z M193,241.3l-2.1,4.5l-18.8,0
	c-4.7,0-5.2,2-6.3,4.3c-1.1,2.2-18.5,43.3-19.6,45.5c-1.1,2.2-1,3.9,2.1,3.9l19.1,0l-1.7,5.4l-30.4,0c-5.4,0-6.5-3.5-4.5-8.2
	l21.7-50.7c1.5-3.7,5.5-4.7,9.8-4.7L193,241.3z M148.4,241.3l-2.2,4.3l-17,0c-4.7,0-6.3,1.3-8,4.8c-1.6,3.5-8.5,19.9-8.5,19.9
	l18.3,0l-2.4,4.6l-17.7,0l-8.5,19.5c-1.7,3.9-1.3,5,1.6,5l19.1,0l-2.3,5.4l-29.8,0c-4.2,0-6.9-2-4.3-8.4l20.8-48.7
	c2.2-5,5.7-6.6,10.8-6.6L148.4,241.3z M421.4,241.1l-2.2,4.3l-17,0c-4.7,0-6.3,1.3-8,4.8c-1.6,3.5-8.5,19.9-8.5,19.9l18.3,0
	l-2.4,4.6l-17.7,0l-8.5,19.5c-1.7,3.9-1.3,5,1.6,5l14.8,0h4.4l-2.3,5.4l-29.8,0c-4.1,0-6.9-2-4.3-8.4l20.8-48.7
	c2.2-5,5.7-6.6,10.8-6.6L421.4,241.1z M93.5,241.3c5.2,0,7.6,4,5.4,9.7c-2.1,5.8-4.6,11-8.2,19.1c-3.6,8.2-6.1,9.1-12.9,10
	l-19.6,2.7l-9.7,22l-13.9,0l28.1-63.6L93.5,241.3z M55.4,241.3l-2.2,4.4l-20.5-0.1c-2.7,0-4.2,1.7-5.7,4.1c-1.5,2.4-1.9,4.3-3.3,7.3
	c-1.4,3-1.3,6.1,1.3,8.2c2.6,2,5.6,4.9,8.3,7.2c4.9,4.3,6.3,6.3,2.3,15.4c-3.1,7.1-1.5,3.9-4.2,9.9c-2.7,6-5.8,7.3-10.5,7.3l-32.3,0
	l2.8-5.4l20,0c3.6,0,4.6-1.9,6.2-5c1.6-3.2,2.1-4.1,4-8.7c2-4.6,2.5-6.9-0.2-9.5c-2.7-2.6-6.2-5.6-10.2-9.1c-4-3.5-3.8-4.5-1.8-9.5
	c2-5,2.8-6.7,4.8-11.3c2-4.6,5.7-5.1,9.5-5.1L55.4,241.3z M423.6,299.3l3.6,0c3.6,0,4.6-1.9,5.9-4.5c1.3-2.6,16.9-38.7,18.7-43.1
	c1.8-4.5,0.5-5.6-2.2-5.6l-9.3,0l-22.8,53.2l4.5,0H423.6z M400.9,304.6l27.3-63.7l34.7,0c5.1,0,6,5.2,4.6,8.9
	c-1.5,3.7-18.2,42.2-20.1,46.8c-2,4.6-4.8,8-9.7,8L400.9,304.6 M453.4,310.5c1.3,0,2.5-0.5,3.4-1.4c0.9-0.9,1.4-2.1,1.4-3.4
	c0-1.3-0.5-2.5-1.4-3.4c-0.9-0.9-2.1-1.4-3.4-1.4c-2.6,0-4.8,2.2-4.8,4.8c0,1.3,0.5,2.5,1.4,3.4C450.9,310,452.1,310.5,453.4,310.5
	 M449.1,305.7c0-1.1,0.4-2.2,1.2-3c0.8-0.8,1.9-1.2,3-1.2c1.1,0,2.2,0.4,3,1.2c0.8,0.8,1.2,1.9,1.2,3c0,2.3-1.9,4.3-4.3,4.3
	c-1.1,0-2.2-0.4-3-1.3C449.6,308,449.1,306.9,449.1,305.7 M451.4,303.2h2.5c1.3,0,1.6,1,1.6,1.4c0,0.6-0.3,1-0.8,1.2
	c0.4,0.2,0.6,0.3,0.6,1.3c0,0.7,0,0.9,0.2,1v0.1h-1.2c-0.1-0.2-0.1-0.5-0.1-1c0-0.7,0-0.9-0.8-0.9h-1.1v2h-1L451.4,303.2z
	 M453.6,305.4c0.5,0,0.8-0.2,0.8-0.7c0-0.3-0.1-0.7-0.7-0.7h-1.3v1.3L453.6,305.4"/>
<path class="st0" d="M-107.8,321.9c0.1-0.2-0.1-0.5-0.2-0.6c-0.3-0.6-1.2-0.8-1.1-1.5c0.1-0.8,1-2.1,0-2.2c-0.5,0-1.3,0.1-1.4-0.4
	c-0.1-0.4,0-1,0.3-1.3c0.2-0.2,0.7-0.3,0.7-0.5c0.1-0.4,0.5-0.5,0.7-0.9c0.3-0.7,0.2-1.3,0-2c-0.1-0.4,0-0.8,0.4-1
	c0.4-0.2,0.8-0.9,0.9-1.3c0.2-1.3,0-2.5,0.8-3.7c0.2-0.3-0.4-0.4-0.8-0.6c-0.3-0.1-0.1-0.4,0.2-0.7c-0.3,0.3,0.2,0.3,0.3,0.5
	c0.2-0.2,0.5-0.4,0.5-0.7c0-0.4,0.2-0.8,0.3-1.1c0.4-2.2,1.1-5.1,2.4-6l0.1,0c0,0.3,0.3,0.6,0.3,0.9c-0.3,0-0.4-0.1-0.7,0.1
	c0.2,0.2,0,0.6,0.2,0.6c0.3,0,0.7,0.1,1,0c0.3,0,0.5,0.3,0.8,0.4c0.6,0.2,0.5-0.6,0.7-1c-0.4-0.2-0.2-0.5-0.2-0.8c0-0.1,0-0.5,0-0.6
	c0.1-0.7-0.8-1.4-0.6-2.1c0.1-0.4,0.3-0.8,0.3-1.1c-0.1-1.1,0.4-2.1,0.1-3.1c0.4,0,0.9-0.2,1.2-0.3c0.6-0.3,0.4-1.2,0.9-1.6
	c-0.2-0.2,0.1-0.5-0.3-0.8c-0.3-0.2,0.4-0.3,0.1-0.6c0.1,0,0.4,0,0.3-0.1c0-0.4-0.2-0.8-0.3-1.1c0-0.2-0.2-0.7,0.2-0.7
	c0.3,0,0.4-0.3,0.6-0.4c0.1-0.1,0.3-0.1,0.3,0.1c0,0.6,0.4,1.1,0.4,1.7c0,0.2,0.1,0.6,0.4,0.7c0.3,0.1,0.6-0.1,0.6-0.4
	c0-0.4-0.1-0.8-0.1-1.1c0-0.2,0.3-0.2,0.5-0.2c0.6-0.2,0.9,1,1.5,0.6c0.5-0.3,0.1-1.6,0.1-1.8c0-0.2-0.2-0.3-0.4-0.4
	c-0.4-0.1-0.6-0.5-1.1-0.5c-0.1,0-0.2-0.4-0.2-0.4c0.1-1.1-0.5-1.6-1.3-2.1c0.1-0.1,0.1-0.2,0.3-0.2c0.5-0.1,0.9,0.4,1.4,0.3
	c0.5-0.1,1.1-0.2,1.2-0.7c0.1-0.4,0-0.9-0.3-1.2c-0.4-0.4-0.5-0.8-0.7-1.3c-0.2-0.5,0.4-1,0.3-1.6c0.6-0.1,0.7,0.5,1,0.8
	c0.1,0.1,0.1,0.3-0.1,0.4c0.6,0.3,0.4,1.3,1.1,1.4c0.5,0.1,1.2,0.2,1.6,0.5c0.4,0.2,0.4,1,0.9,1.3c0.3,0.2,0.6,0.4,1,0.3
	c0.4-0.1,0-0.4,0-0.6c0-0.6-0.6-1.2-0.6-1.9c0-1.4-0.4-2.7-0.8-4.1c-0.1-0.3-0.4-0.4-0.6-0.6c-0.1-0.2-0.2-0.4-0.3-0.5
	c-0.3-0.6,0.2-1.5,0.4-2.2c0.5,0.5,0.4,1.6,1.1,1.6c0.8,0,1.7-0.9,1.9-1.5c0.2-0.7,0.6-1.8-0.2-2.4c-0.1-0.1-0.4-0.1-0.4-0.3
	c0-0.2,0.2-0.4,0.3-0.6c0.2-0.8-0.1-1.5-0.3-2.3c0.4,0,0.6-0.2,0.9-0.3c0.2-0.1,0.6-0.1,0.8-0.4c0.5,0.3,0.5,1,0.4,1.6
	c0,0.2,0.3,0.1,0.3,0.1c0.3-0.6,0.5-1.3,0.7-1.9c0.1-0.4-0.2-1.3-0.6-1.9c0.2-0.1,0.2-0.4,0.2-0.5c-0.5-1,1.1-4.4,2-2.9
	c-0.2-0.3-0.2-0.7-0.2-1c0-0.5-0.1-1.2,0.2-1.7c0.2-0.4,1,0.1,1.1-0.5c0.1-0.7,0.5-1.3,0.4-2c0.6,0,0.7-0.6,1.1-0.9
	c-0.2-0.2-0.6-0.4-0.5-0.6c0.1-0.3-0.2-0.6-0.3-0.7c0,0,0,0,0,0c0,0,0,0,0,0c-0.7,0.4-1.2,1.1-2,1.3c-0.4,0.1-0.9,0.3-1,0.5
	c-0.2,0.5-0.6,0.8-1,1c-2.2,1.1-4.1,3.1-6.1,4.4c-0.9,0.6-2.1,1.2-3.1,1.7c-0.1,0.1-0.2,0.4,0,0.6c-0.1,0-0.3-0.1-0.3,0.1
	c0,0.6-0.4,1-0.8,1.1c-0.5,0.2-1,0.4-1.1,0.8c-0.2,0.5-0.6,0.8-1,1c-0.4,0.3-0.9,0.3-1.4,0.4c-0.7,0.1-0.6,1.1-1.2,1.6
	c-1.8,1.4-3.7,2.2-5.3,3.7c-0.3,0.3-0.3,0.9-0.7,1c-0.5,0.2-0.8,0.6-1.3,0.8c-1,0.5-2.7,2.4-3.7,3c-0.5,0.2-1.1,0.9-1.5,1.2
	c-0.5,0.4-1.3,0.5-1.9,0.8c-0.2,0.1-0.5,0.1-0.7,0c-0.3-0.1-0.4-0.2-0.7-0.3c-0.3-0.1-0.5-0.3-0.7-0.5c-0.5-0.4-0.9-0.8-1.3-1.2
	c-1-1-1.8-2.1-2.9-3c-0.8-0.7-1.6-1.5-2.3-2.3c-1-1.2-2.1-2.3-2.9-3.6c-0.2-0.4-0.6-0.6-0.8-1c-0.3-0.6-0.9-1-1.2-1.6
	c-0.4-0.9-1.3-1.5-1.3-2.5c0-1.3,0.4-2.5,0.8-3.7c0.1-0.2,0.4-0.4,0.5-0.6c0.6-1.2,1.5-3.1,2.1-4.3c0.2-0.4,0.6-0.7,1-0.7
	c0.6,0.1,0.8-0.5,1-0.9c0.1-0.3-0.1-0.7-0.2-1.1c-0.1-0.3,0.1-0.6,0-1c0.6-0.1,1.2-0.9,1.6-0.4c0.3,0.4,0.7,0.7,1.2,0.7
	c0.4,0,0.3-0.3,0.6-0.5c0.1-0.1,0.3,0,0.5,0c0.4-0.1,0.4-0.8,0-0.9c-0.7-0.2-1.1-0.9-1.1-1.5c0-0.9,0.4-2.4,1.3-2.9
	c0.2-0.1,0.7-0.3,0.8-0.2c0.5,0.4-0.1,1.5,0.8,1.6c0.5,0.1,1.3,0,1.2-0.5c-0.1-0.5-0.9-0.8-0.9-1.4c0-0.9,1.3-0.8,1.6-1.4
	c0.7-1.3,0.8-3,0.3-4.5c-0.1-0.4,0.6-0.3,0.9-0.4c0.6-0.2,0.4,1,1.1,1.2c0.1-0.2,0.4,0,0.5-0.2l0.1-1.2c0.1-0.5,0.1-1.1,0.3-1.6
	c0.1-0.2,0.3-0.8,0.6-0.8c0.3,0,0.8-0.4,0.9-0.8c0-0.4-0.5-0.7-0.4-1.2c0.1-0.9,1.4-0.5,1.8-1.3c0.1,0.1,0.2,0.2,0.2,0.2
	c0.6-0.3,0.9-0.9,1.6-1.1c0.3-0.1,0.5,0.2,0.7,0.2c0.1,0,0.5,0,0.4-0.2c0-0.1,0-0.3,0-0.4c0-0.2,0-0.5,0-0.7
	c0.1-0.8-0.3-1.3-0.8-1.7c0.1-0.1,0.5-0.6,0.8-0.6c0.2-0.3,0.6-2,1.7-0.9c0.2,0.2,0.5-0.1,0.8-0.2c0.4-0.1,0.2-0.6,0.2-0.9
	c0-0.3,0-0.7,0.1-1c0.1-0.4,0.5-0.6,0.9-0.7c0,0-0.1-0.1-0.1-0.1c0.2,0,0.3,0,0.5,0c0.7-0.3,0.5-1,0.6-1.6c0,0,0.1,0.1,0.1,0.1
	c0,0,0.1-0.1,0.1-0.1c0,0,0.1,0.1,0.1,0.1c0.1-0.5,0.6-0.9,0.7-1.5c0.4,0.1,0.2-0.4,0.5-0.5c0.1,0,0.3,0,0.3-0.1
	c0,0-0.1-0.1-0.1-0.1c0.5,0,0.7-0.4,0.9-0.8c0.1-0.2,0.1-0.6,0.1-0.9c0-0.8,0.4-1.7,0.8-2.3c0.2-0.4,1-1,1.5-0.2
	c0.4-0.4,0-1.2,0.6-1.3c0.2,0,0.4,0.4,0.7,0.5c0.6,0.2-0.3,1.1,0.4,1.2c0.7,0.1,0.6-0.4,0.8-0.9c0.1-0.3,0.7-0.1,1-0.2
	c0.4-0.1,0-0.7-0.2-0.9l-0.1,0.1c0-0.1,0.1-0.3-0.1-0.3c-1-0.1-0.3-1.1-0.2-1.6c0-0.1-0.2-0.1-0.2-0.2c0-0.1,0.4-0.1,0.1-0.4
	c0.4-0.1,0.9,0,1-0.4c0-0.1,0-0.4,0.1-0.6c0.1,0,0.2-0.1,0.2-0.1c0.5,0.2,1.2,1,1.3,0.3c0.1-0.5,0.2-1.4,0.6-1.6
	c0.1-0.1,0.5-0.1,0.5-0.2c0.1-0.5-0.4-0.9-0.5-1.3c0-0.1,0.1-0.4,0.2-0.3c0.4,0.1,1,0.2,1.2,0c0,0,0,0,0,0c0.2-0.6-0.9-0.7-1.4-0.8
	c0,0,0.1-0.1,0.1-0.1c0-0.1-0.1-0.2-0.2-0.1c0.1-0.2,0.1-0.6,0.4-0.7c0.1,0,0.2,0,0.2,0c0.4-0.3,0.5-0.9,0.1-1.3
	c-0.1-0.2,0.5-0.1,0.1-0.4c0.2,0,0.5,0.1,0.7,0c0.5-0.2,1-0.5,1.3-0.9c0.2-0.4,0.3-0.9,0.7-1c0.4-0.1,0.9-0.1,1.2-0.5
	c-0.2-0.1-0.1-0.3-0.1-0.5c0.2,0,0.4-0.1,0.5,0.1c0.5-0.4,0.4-1.2,0.9-1.5c0.3-0.2,0.9,0,1-0.4c0.2-0.9,0.6-1.5,1.2-2
	c0.3-0.3,1-0.3,1.2-0.7c0.2-0.3,0-0.8,0.1-1.1c0.3-0.6,1-0.9,1.3-1.5c0.1-0.2-0.1-0.6,0.2-0.8c0.4-0.2,0.8,0,1.1,0.3
	c0.4-0.6,0.1-1.2,0.4-1.8c0.3-0.6,0.6-1.4,1.1-1.7c0.5-0.2,0.9-0.4,1.1-0.8c0.2-0.4,0.5-0.8,0.4-1.3c0.1,0,0.3,0,0.4-0.1
	c0.3,0.2,0.3,0.7,0.4,0.6c0.8-0.7-0.1-2.1,0.4-3c0.2-0.4,0.9,0,1.2-0.2c0.1-0.1,0.4-0.1,0.3-0.4c0-0.3,0.1,0.1,0.3,0.1
	c-0.1,0.4,0,0.7,0.4,0.8c0.3,0.1,0.7-0.1,0.8,0.1c0.2,0.3-0.1,0.8-0.1,1c0.1,0.5,0.5,0.9,0.7,1.4c0.1,0.3-0.3,0.5-0.3,0.8
	c0.2,1,0.6,2,0.4,3c-0.1,0.5-0.6,0.8-0.7,1.3c-0.1,0.6,0.6,0.8,0.6,1.5c0,0.5,0.1,1.1-0.5,1.3c-0.2,0.1-0.4,0-0.6,0.2
	c-0.2,0.2,0.4,0.4,0.2,0.7c0.5,0.2,0.9,0.5,1,0.9c0.4,1-0.2,2.7,1.3,2.9c0.1,1,0.8,1.9,0.7,2.8c-0.2,1.4-1.6,3.6-2.7,4.6
	c-0.5-0.2-1.5,1.2-1.8,1.5c0.1,0.1,0.2,0.2,0.2,0.2c-0.3,0.2-0.2,0.6-0.4,0.8c-0.2,0.3-0.7,0.2-0.8,0.6c-0.1,0.8-0.8,1.3-1.3,1.9
	c0.2,0.2,0,0.4-0.1,0.5c-0.5,1-1.6,1.1-1.9,2.3c-0.1,0.3-0.9,0.2-0.9,0.6c-0.1,0.8-0.8,1.1-1,1.8c-0.1,0.4-0.6,0.1-0.8,0.4
	c-0.1,0.1,0,0.3,0,0.4c0.1,0.5-0.4,0.7-0.8,0.8c0,0,0.1,0.1,0.1,0.1c-0.5-0.1-0.5,0.5-0.8,0.6c0.2,0.4-0.2,0.9-0.5,0.9
	c-0.2,0-0.6-0.1-0.7-0.4c0,0.2-0.3,0-0.3,0.2c0,0.5,0.5,1,0.3,1.4c-0.2,0.4-0.5,0.8-0.8,1.1c-0.4,0.4-1.2,0.4-1.4,0.7
	c-0.2,0.4-0.1,1.2-0.3,1.7c-0.2,0.7-1.3,0.2-1.3,0.7c0,0.3,0.3,1-0.1,1.2c-0.5,0.2-1.1,0.4-1.2,0.9c-0.2,0.5-0.9,0.8-0.7,1.3
	c0,0.1,0,0,0,0c0,0.3-0.2,0.5-0.3,0.7c-0.3,0.9-1.2,1.4-1.9,2.1c-0.1,0.1,0.1,0.5,0,0.8c-0.3,0.5-1.1,0.2-1.2,0.7
	c-0.1,0.3-0.2,0.8,0,1.2c0.3,0.7,1.3,0.7,1.8,1.4c0.4-0.3,0.2-1.1,0.1-1.5c-0.1-0.4,0.6-0.6,1.1-0.7c0.1,0,0.2-0.2,0.2-0.2
	c0.5,0.3,0.8,0.9,1.4,1c0.6,0.1,0.7-0.5,0.9-0.9c0.2-0.2-0.3-0.4-0.3-0.7c0-0.3,0-0.5,0.2-0.6c0.3-0.1,0.6-0.1,1,0
	c0.4,0.1,0.4,0.8,0.6,0.7c0.8-0.2-0.2-1.2,0.1-1.8c0.1-0.2,0.5-0.3,0.6-0.1c0.2,0.3,0.2,0.7,0.5,0.8c0.2,0,0.5,0,0.5-0.1
	c0.4-0.9,1.2-0.9,2-1c0.8-0.2-0.6-1.6,0.1-1.6l1.3,0c0.1,0,0.2,0.1,0.2,0.1c0-0.1,0.2-0.2,0.3-0.2c-0.1-0.2,0.3-0.6-0.1-0.8
	c0.2-0.3,0.6-0.3,1-0.3c0.5,0,0.6-1,1.2-1.1c0.3,0,0.6,0.4,0.8,0.3c0.4-0.3,0.9,0,1.2-0.2c0.2-0.2,0.5-0.5,0.6-0.8
	c0.1-0.4-0.3-1.1,0.2-1.2c0.4-0.1,0.8,0.6,1.2,0.6c0.3,0,0-0.5,0-0.8c0.1-0.6,0.4-1,0.7-1.3c0.2-0.2,0.5,0,0.7,0.2
	c0.1,0.1,0.3,0.1,0.4,0c0.4-0.2,0.5-0.7,0.6-1.1c0-0.3-0.2-0.7,0.2-0.8c0.4-0.2,0.9,0,1.1,0.3c0.2,0.2-0.4,0.5-0.4,0.8
	c0,0.3,0.5,0.7,0.8,0.8c0.2,0.1,0.3-0.3,0.3-0.5c0-0.3-0.3-0.6-0.3-0.8c0-0.6,0.3-1.3,0.9-1.4c0.4,0,0.7,0.7,1.2,0.6
	c0.5-0.1,0.5-0.9,0.9-1c0.4-0.1,0.5-0.4,0.6-0.6c0.1-0.3,0.2-0.7,0.4-0.8c0.3-0.1,0.7-0.2,0.9,0c0.3,0.2,0.4,0.7,0.8,0.9
	c0.2,0.1,0.4,0.1,0.6,0.1c0.4,0,0.8,0,0.9-0.5c0.1-0.3,0.2-0.5,0.4-0.6c0.2-0.1,0.3-0.1,0.5-0.3c0.4,0.4,1.5,0.1,1.7-0.2
	c0.1-0.2,0.8-0.4,0.8-0.6c0-0.5,0.8-0.8,1.3-1c0.3-0.1,1.3,0.1,1.7,0.2c0,0-0.2,0.2-0.1,0.2c0,0.2,0.3,0.2,0.4,0.2
	c-0.1,0.6,0.4,0.9,0.7,1.3c0.7,1.1,1.5,2.3,2.1,3.4c0.8,1.3,1.5,2.8,2.3,4c0.5,0.9,1.3,1.9,1.7,2.9c0,0.1,0-0.1,0,0
	c0.5,1.4,1.2,2.9,0.8,4.4c-0.2,1.1-1.4,1.8-2.1,2.8c-0.3,0.5-0.5,1-0.7,1.4c-0.2,0.4-0.5,0.6-0.8,0.9c-0.5,0.4-1.1,1-1.1,1.7
	c0,0.4-0.3,0.7-0.4,0.9c-1.3,1.9-3.7,6.3-5.1,8.1c-0.4,0.6-2.3,4-2.6,4.6c-0.3,0.6-0.5,1.2-1.1,1.6c0.3,0.3-0.2,0.6-0.2,0.8
	c-0.1,0.4-0.3,0.9-0.8,1.1c0.3,0.3-0.2,0.5-0.2,0.8c-0.1,0.7-0.7,1.2-1.1,1.9c-0.3,0.6-0.8,1.1-1,1.7c-0.3,0.6-0.6,1.3-0.9,1.9
	l-0.1,0.2c-1.1,2-2.3,4-3.1,6.3c-0.1,0.3-0.6,0.6-0.7,0.9c-0.1,0.4-0.6,0.6-0.5,1.1c0,0.5-0.6,0.7-0.7,1.1c-0.1,0.4-0.2,0.9-0.5,1.3
	c-0.1,0.1-0.1,0.2-0.2,0.3l-1.4,2.7c0,0.2,0.1,0.5,0.1,0.6c0,0.2-0.4,0.6-0.5,0.9c-0.1,0.4-0.5,0.9-0.7,1.1
	c-0.2,0.3-1.1,1.8-1.3,2.5c-0.2,0.7-2.2,4.5-2.5,4.9c-0.2,0.3-2.5,5-2.6,5.3c-0.1,0.3,0,0.6-0.1,1.2l-2.1,6.2
	c-0.1,0.3-0.3,0.4-0.4,0.6c-0.1,0.2-0.8,2.8-1,3.1c-0.2,0.3-0.3,0.3-0.4,0.8c0,0.4-0.4,2.6-0.6,2.7s-0.6,0.4-0.6,0.6
	c0,0.2-0.2,0.7-0.4,1c-0.1,0.3-0.9,0.8-0.5,2.1c0.3,1.3-0.6,1.2-0.7,1.8c-0.1,0.6-0.7,0.6-0.3,1.6c0.4,1-0.1,1.1-0.1,1.4
	c0,0.3-0.6,4.1-0.7,4.6c-0.2,0.6,0,1.5,0,2.1c-0.1,0.9-0.3,1.9-0.8,2.7c0.3,0.1-0.1,0.4,0.1,0.6c-0.4,0.4-0.4,0.9-0.5,1.4
	c-0.1,0.4-0.2,1-0.1,1.6c0,0.3,0.2,0.9-0.2,1.2c0.3,0.2,0.1,0.6,0.1,0.7c0,1.1,0,2.1-0.2,3.3c-0.3,1.5-0.1,3-0.1,4.5
	c0,0.2-0.1,0.6,0.1,0.7c-0.3,0.5,0,1.1,0,1.6c0,1,0.1,2.1,0.3,3.1c0.1,0.9,0.5,1.9,0.7,2.8c0.1,0.5-0.2,1.1-0.2,1.6
	c0.2,1.9,1.2,3.6,1.4,5.5c0.1,0.9,1.1,1.2,1.2,1.9c0.1,0.4-0.1,0.7-0.3,1.1c-0.1,0.2,0.2,0.5,0.3,0.7c0.2,0.4,1,0.2,1.2,0.7
	c0.1,0.3-0.3,0.5-0.4,0.7c-0.1,0.4,0.7,0.7,0.6,1.2c0,0.2,0.1,0.4,0.1,0.5c0.2,0.5,1.1,0.3,1.2,0.9c0.2,0.6,0.6,1,0.8,1.6
	c0.2,0.5,0.5,2.9-0.2,2.7c-1.4-0.3-2.6-1.5-2.5-2.8c0.1-0.8-0.8-1.4-1.2-2c-0.9-1.3-1.8-1.7-2.2-3.2c-0.1-0.2-0.4,0-0.5-0.2
	c-0.1,0.1-0.5,0.1-0.4,0.2c0.1,0.3-0.2,0.3-0.2,0.3c-1.1,0.4-1.9-1.1-2.4-2c-0.3-0.5-0.5-1-1-1.2c-0.9-0.5-1-1.5-1.8-2.1
	c-0.5-0.4-0.5-1.4-0.4-2.3c0.1-0.7-1-0.6-1-1.1c0-0.3-0.3-0.3-0.3-0.5c-0.2,0.3-0.5-0.2-0.7,0c-0.1-0.2,0-0.4-0.1-0.6
	c-0.1-0.2-0.4-0.4-0.6-0.6c-1.2-1.6-1.7-3.3-2.6-5c-0.1-0.3,0.3-0.8-0.1-1.1c-0.1,0.2-0.3,0.2-0.3,0.1c-0.3-0.4-1-0.2-1-0.6
	c0-0.4-0.3-1-0.5-1c-0.4-0.1-0.8-0.3-1.2-0.4c-0.3-0.1-0.3-1-0.8-1c-0.4,0-0.7-0.2-0.7-0.6c0.1,0,0.2,0,0.2,0
	c0.2-0.2,0.5-0.5,0.2-0.8c-0.2-0.3-0.6-0.3-0.9-0.4c-0.4-0.1-0.1-0.5-0.1-0.8c0-0.5-0.5-0.7-0.5-1.1c0-0.3-0.4-0.6-0.1-0.8
	c0.3-0.3,0.1-0.7,0.2-1c0.1-0.7-0.8-1.1-0.6-1.8c0-0.1,0.3-0.3,0.7-0.2c0.2,0.1,0.2-0.4,0.2-0.4c0-1-0.4-1.9-0.6-2.9
	c-0.1-0.5,0.2-1.1,0.2-1.6c0-1.4,0.2-2.9-0.5-4.2c-0.1-0.2-0.3-0.4-0.4-0.6c-0.1-0.5,0.5-0.5,0.8-0.7h0.9c0.1,0.1,0.1,0.3,0.3,0.4
	c0.1,0.1,0.3,0.1,0.4,0.1C-109.2,322.4-108,322.3-107.8,321.9"/>
</svg>
